<svg xmlns="http://www.w3.org/2000/svg" version="1.1" id="Layer_1" x="0" y="0" viewBox="0 0 526.3 195.2" style="enable-background:new 0 0 526.3 195.2" xml:space="preserve">
  <style>
    .st0{fill:#f37021}.st1{fill:#fff}
  </style>
  <linearGradient id="SVGID_1_" gradientUnits="userSpaceOnUse" x1="197.65" y1="65.873" x2="198.357" y2="65.166">
    <stop offset="0" style="stop-color:#20ac4b"/>
    <stop offset=".983" style="stop-color:#19361a"/>
  </linearGradient>
  <path class="st0" d="M451.7 26.5C374.1.2 288.4-3.8 207.3 2.7c-37.8 3-75.5 8.8-111.9 19.6C69.7 30 42.9 40.5 22.5 58.5c-21.1 18.8-31.7 48-12.4 72.3 7.9 9.9 24.2-12.7 17.4-21.2-3-3.7-5.4-7.4-6.9-11.9-.6-2-.8-3.7-.8-5.7 0-.6.3-3.6-.1-.5.1-.9.3-1.8.5-2.7.6-3.1-.9 2.8.1-.2.3-.9.7-1.8 1-2.6-1.7 3.9.2-.1.7-.9.4-.7 2.4-3.4.2-.3.6-.9 1.3-1.7 2-2.5.7-.9 1.5-1.7 2.2-2.5-2.1 2.3.6-.5.9-.8 4.1-3.9 7.9-6.6 11.9-9.1 25-16 54.9-24.1 83.7-30.4 81.9-17.9 169.9-18 252.4-3.9 21.1 3.6 42.2 8.5 62.5 15.3 11.2 3.7 24.1-21 13.9-24.4zM76 169.2c77.3 25.7 162.4 29.7 243 23.3 37.8-3 75.5-8.8 111.9-19.6 25.7-7.7 52.5-18.1 72.9-36.2 21.6-19.2 31.8-49 11.6-73.3-8.2-9.8-24.4 12.9-17.4 21.2 3.2 3.9 6 7.8 7.7 12.6.7 2 .9 3.9 1 6.1 0 .6-.3 3.6.1.5-.1.9-.3 1.8-.5 2.7-.6 3.1.9-2.8-.1.2-.3.9-.7 1.8-1 2.6 1.7-3.9-.2.1-.7.9-.4.7-2.4 3.4-.2.3-.6.9-1.3 1.7-2 2.5-.7.9-1.5 1.7-2.2 2.5 2.1-2.3-.6.5-.9.8-4.1 3.9-7.9 6.6-11.9 9.1-25 16-54.9 24.1-83.7 30.4-81.6 17.9-169.2 18-251.4 4.1-21-3.6-41.9-8.3-62.2-15-11.3-3.8-24.2 20.9-14 24.3z"/>
  <path class="st0" d="m418.3 75.2 4.3-20.4h-89.1L317.1 132l-16.5-77.2H260L210 133l-16.7-78.2h-40.6l-53.5 83.8h35.2l5.6-9.6h34.5l1.5 9.6h65.6l5.6-9.6h34.5l1.5 9.6h121.5l4.3-20.4h-56l2.4-11.3h52l4.3-20.4h-52l2.4-11.3h56.2zm-266.7 33.4 15.9-28.4h.2l3.8 28.4h-19.9zm107.3 0 15.9-28.4h.2l3.8 28.4h-19.9zM113.8 91.8H92.1c-2.3-2.2-5.3-4.7-8.6-5.3-1.9-.4-18.5-2.6-20.6-3-.5 0-1.3.4-1.5 1-.5 1.3-2.5 4.6-5.5 7.3H43.4c-2.5 0-5 5.9-2.2 5.9h13.5c1.9 2.7 2.4 6 2.3 7.3 0 .6.6 1 1.1 1 2.3-.4 19.9-2.6 21.9-3 3.5-.6 7.6-3.1 10.9-5.3h20.8c2.4.1 4.9-5.9 2.1-5.9zM482.7 92.3h-3.5l-20.8-9.4-3.5 8.9h-30.4c-2.5 0-5 5.9-2.2 5.9h31.9l1.3 8.9 23.1-9.4h3.5l8.4-2.5-7.8-2.4z"/>
  <path class="st1" d="m120.7 33.1-8.6 2.1-.8 3.5-5.5 1.4 4.5-17 6.1-1.5 12 12.9-5.5 1.4-2.2-2.8zm-6.5-7.6-1.5 6.7 5.9-1.5-4.4-5.2zM126.9 19.1l13.8-2.7c5.2-1 6.6 1.4 6.9 2.9.4 1.8-.3 3.2-2.4 4.3 2.3-.2 3.1 2.1 3.4 3.5.1.7.6 2.5 1.6 3.1l-5.6 1.1c-.6-.6-.8-1.2-1.1-2.8-.4-2.1-1.7-2.4-3.2-2.1l-6.4 1.3 1.1 5.6-5.1 1-3-15.2zm6.4 5.7 6.8-1.3c1.1-.2 2.4-1 2.1-2.4-.3-1.5-1.9-1.6-3.1-1.4l-6.5 1.3.7 3.8zM150.1 14.7l5.2-.8 2.5 15.2-5.2.8-2.5-15.2zM159.7 26 171 14.5l-11.8 1.6-.4-2.9 18.6-2.6.4 2.7-11.3 11.5 12.6-1.7.4 2.9-19.5 2.7-.3-2.7zM191.1 8.8c10.3-1 12.4 3.7 12.7 6.9.3 3.2-.8 8.3-11.1 9.3-10.3 1-12.4-3.7-12.7-6.9-.3-3.2.8-8.2 11.1-9.3zm1.4 13.3c4.7-.5 6.1-3.4 5.9-5.8-.2-2.4-2.2-5-6.9-4.5s-6.1 3.4-5.9 5.8c.2 2.4 2.1 5 6.9 4.5zM222.6 6.8l5.1-.3 1 15.4-5.7.4-11.2-10.1h-.1l.7 10.7-5.1.3-1-15.4 6.1-.4 10.8 10.1h.1l-.7-10.7zM246.1 18.1l-8.9.3-1.5 3.2-5.6.2 8-15.7 6.3-.2 8.9 15.2-5.6.2-1.6-3.2zm-4.7-8.7-2.8 6.2 6-.2-3.2-6zM279 18.1l-8.9-.1-1.6 3.2-5.6-.1 8.7-15.3 6.3.1 8.3 15.5-5.6-.1-1.6-3.2zm-4.3-9-3.1 6.1 6.1.1-3-6.2zM288.5 6l14 .6c5.3.2 6.1 2.9 6 4.5-.1 1.9-1.1 3-3.3 3.6 2.3.4 2.5 2.7 2.5 4.2 0 .8 0 2.6.8 3.4l-5.7-.3c-.5-.7-.5-1.4-.4-3 .1-2.2-1-2.7-2.7-2.8l-6.5-.3-.3 5.7-5.2-.2.8-15.4zm4.9 7.1 6.9.3c1.2.1 2.5-.4 2.6-1.9.1-1.5-1.4-2-2.7-2l-6.7-.3-.1 3.9zM327.8 14.2c-.3-2.3-2.5-3.5-5.2-3.7-5-.4-6.2 2.6-6.4 4.7-.2 2.1.6 5.3 5.6 5.7 2.5.2 5.1-.6 5.8-3l5.7.4c-1 4.4-5.7 5.9-11.9 5.4-7-.5-11.2-3.3-10.7-9 .4-5.7 5-7.8 12-7.2 4.6.4 10.5 1.8 10.8 7.1l-5.7-.4zM337.1 9.2l5.2.6-.7 5.7 10.8 1.3.7-5.8 5.2.6-1.8 15.4-5.2-.6.8-6.7-10.8-1.3-.8 6.7-5.2-.6 1.8-15.3zM362.6 12.2l17.8 2.8-.5 2.9-12.6-2-.5 3.2 12 1.9-.4 2.8-12-1.9-.5 3.5 12.7 2-.5 2.9-17.9-2.8 2.4-15.3zM384 15.6l13.7 2.7c5.2 1 5.6 3.8 5.3 5.3-.4 1.8-1.5 2.8-3.8 3 2.2.7 2.1 3.1 1.8 4.6-.1.7-.4 2.5.3 3.5l-5.6-1.1c-.3-.8-.2-1.4.1-3 .4-2.1-.6-2.9-2.2-3.2l-6.4-1.3-1.1 5.6-5.1-1 3-15.1zm3.8 7.8 6.8 1.4c1.1.2 2.6 0 2.8-1.4.3-1.5-1.1-2.2-2.4-2.4l-6.5-1.3-.7 3.7zM410.7 31.6l-5.8-11.8 6 1.5 3.2 7.7 6.5-5.3 6 1.5-10.7 7.7-1.3 5.2-5.1-1.3 1.2-5.2z"/>
  <g>
    <path class="st1" d="m111.9 158.1 17.5 4.1-.7 2.9-12.4-2.9-.7 3.1 11.8 2.8-.6 2.7L115 168l-.8 3.5 12.5 3-.7 2.9-17.6-4.2 3.5-15.1zM148.5 165.9l5 .9-2.8 15.2-5.6-1-8.4-12.5h-.1l-1.9 10.6-5-.9 2.8-15.2 6 1.1 8 12.4h.1l1.9-10.6zM162.1 171l-7.1-1 .4-2.9 19.4 2.8-.4 2.9-7.1-1-1.8 12.4-5.2-.7 1.8-12.5zM176.8 170.1l17.9 2-.3 2.9-12.7-1.4-.3 3.2 12.1 1.3-.3 2.8-12.1-1.3-.4 3.5 12.8 1.4-.3 2.9-18-2 1.6-15.3zM197.9 172.4l14 1.1c5.3.4 6 3.1 5.9 4.7-.1 1.9-1.2 3-3.4 3.5 2.3.5 2.4 2.8 2.3 4.3-.1.8-.1 2.6.7 3.4l-5.7-.4c-.4-.7-.4-1.4-.3-3 .2-2.2-1-2.8-2.6-2.9l-6.5-.5-.4 5.6-5.2-.4 1.2-15.4zm4.7 7.2 6.9.5c1.2.1 2.5-.3 2.7-1.8.1-1.5-1.4-2-2.6-2.1l-6.7-.5-.3 3.9zM221 174l13 .6c5.5.2 6.7 2.9 6.6 5-.1 3.3-2.4 5.1-6.6 4.9l-8.1-.4-.2 5.5-5.2-.2.5-15.4zm5 7.4 5.6.2c1.6.1 3.5.1 3.6-2 .1-2-1.4-2.2-2.9-2.3l-6.1-.3-.2 4.4zM243.7 175l14 .2c5.3.1 6.2 2.7 6.2 4.3 0 1.9-1 3.1-3.2 3.7 2.3.3 2.6 2.6 2.6 4.2 0 .8 0 2.6 1 3.4l-5.7-.1c-.5-.7-.5-1.3-.5-3 0-2.2-1.1-2.7-2.7-2.7l-6.5-.1-.1 5.7-5.2-.1.1-15.5zm5.2 6.9 6.9.1c1.2 0 2.5-.5 2.5-1.9 0-1.5-1.5-1.9-2.8-2l-6.7-.1.1 3.9zM267 175.2h5.2l.1 15.4h-5.2l-.1-15.4zM289.2 179.2c-.4-2-2.8-2.1-4.9-2.1-2.2.1-3.5.9-3.5 1.9 0 .8.9 1.2 2.3 1.4l6.6.6c3.5.4 6.2 1.3 6.3 4.1.1 2.9-2.3 5.3-9.9 5.5-4.7.1-10.8-.2-11-5l5.9-.2c.1 2.1 2.8 2.4 5 2.3 2.5-.1 4.1-.7 4.1-2 0-1.2-1.2-1.5-3.3-1.7l-4.8-.4c-3.4-.3-6.6-1-6.7-4.2-.1-3.4 3.4-4.9 9.4-5.1 4-.1 9.9.3 10.3 4.6l-5.8.3zM298.3 174.4l18-1.1.2 2.9-12.8.8.2 3.2 12.1-.7.2 2.8-12.2.7.2 3.5 12.9-.8.2 2.9-18.1 1.1-.9-15.3zM332.8 176.4c-.5-2-2.9-2-5-1.8-2.2.2-3.5 1.1-3.4 2.1.1.8 1 1.2 2.3 1.2l6.6.2c3.5.1 6.3.9 6.5 3.7.3 2.9-2 5.4-9.5 6.1-4.7.4-10.8.5-11.3-4.3l5.9-.5c.2 2.1 2.9 2.2 5.2 2 2.4-.2 4.1-1 3.9-2.3-.1-1.2-1.3-1.4-3.4-1.5l-4.8-.1c-3.4-.1-6.7-.6-7-3.8-.3-3.4 3.1-5.1 9.1-5.7 4-.4 9.9-.4 10.6 4l-5.7.7zM351.7 169.8l5.2-.7 2 15.3-5.2.7-2-15.3zM376.8 166.1l5-.8 2.4 15.2-5.6.9-12.1-9h-.1l1.7 10.6-5 .8-2.5-15.2 6-1 11.7 9h.1l-1.6-10.5zM402.8 166.9c-.9-2.1-3.4-2.7-6.1-2.1-4.9 1-5.2 4.3-4.8 6.3.4 2.1 2.1 4.9 7 3.9 2.5-.5 4.7-2 4.7-4.5l5.6-1.2c.3 4.5-3.8 7.3-9.8 8.6-6.9 1.5-11.7 0-12.8-5.6-1.2-5.6 2.6-8.9 9.5-10.3 4.5-1 10.5-1.3 12.4 3.8l-5.7 1.1zM413.1 170.5l5.1-1.3.9 3.6-5.1 1.3-.9-3.6z"/>
  </g>
</svg>
