<svg xmlns="http://www.w3.org/2000/svg" version="1.1" id="Layer_1" x="0" y="0" viewBox="0 0 248.3 187.8" style="enable-background:new 0 0 248.3 187.8" xml:space="preserve">
  <style>
    .st0{fill:#606060}.st1{fill:#c6c5c5}.st2{fill:#a0a0a0}.st3{fill:#333}.st22{fill:#62cbec}.st23{fill:#fff}
  </style>
  <path class="st0" d="m85.1 142.8 2.5-.8v-12l-2.5 2.5z"/>
  <path class="st1" d="M87.6 130h-5l2.5 2.5z"/>
  <path class="st2" d="M85.1 142.8v-10.3l-2.5-2.5v15z"/>
  <path class="st3" d="M111.7 142.8s-.6.8-2.6 1.1c-1.7.2-3.8.3-6.1.4-2.5.1-4.6.1-4.7.1-.3 0-2.3 0-4.6-.1s-4.4-.2-6.1-.4c-1.9-.3-2.5-1.1-2.5-1.1l-2.5 2.2c3.9.6 9.6 1.1 15.8 1.1 6.3 0 11.9-.4 15.8-1.1l-2.5-2.2z"/>
  <path class="st1" d="M85.1 142.8s.6.8 2.5 1.1c1.7.2 3.8.3 6.1.4 2.3.1 4.3.1 4.6.1.1 0 2.2 0 4.7-.1 2.3-.1 4.4-.2 6.1-.4 1.9-.3 2.5-1.1 2.5-1.1l-2.5-.8h-.5c-3 .3-6.5.4-10.2.4-3.7 0-7.2-.1-10.3-.4h-.5l-2.5.8z"/>
  <path class="st2" d="M111.7 142.8v-1.9l-2.5-2.5v3.6z"/>
  <path class="st1" d="m111.7 140.9 2.5-2.5h-5z"/>
  <path class="st0" d="M111.7 140.9v1.9l2.5 2.2v-6.6l-2.5 2.5zM127.3 142.8l2.6 2.5V130l-2.6 2.5z"/>
  <path class="st1" d="m127.3 132.5 2.6-2.5h-5.1z"/>
  <path class="st3" d="M124.8 145.3h5.1l-2.6-2.5z"/>
  <path class="st2" d="m127.3 132.5-2.5-2.5v15.3l2.5-2.5zM139.7 131l-.1-.1v3.7l1.8-2.1z"/>
  <path class="st0" d="m171.3 130.9-1.8 1.6 1.8 2.1z"/>
  <path class="st3" d="m169.1 132.5-1.4-.2c-.2 0-.5-.1-.8-.1-1.9-.2-4.4-.4-7.3-.4H158c-1 .1-1.8.2-2.2.4-.2.1-.3.2-.3.3l1.7.7.9.4c2.8 0 5.4.2 7.7.4.6 0 1.2.1 1.8.2.4 0 .9.1 1.3.1.2 0 .4 0 .6.1.7.1 1.3.2 2 .3l-1.8-2.1-.6-.1zM152.9 145.3h5.1l-2.6-2.5z"/>
  <path class="st1" d="m141.4 132.5.4-.1 1.4-.2c.2 0 .5-.1.8-.1 1.9-.2 4.4-.4 7.3-.4h.7c1.4 0 2.6.2 3.1.4.2.1.3.2.3.3v-.1.1c0-.1.1-.2.3-.3.4-.2 1.2-.4 2.2-.4h1.6c2.8.1 5.4.2 7.3.4.3 0 .5.1.8.1l1.4.2.4.1 1.8-1.6c-3.9-.6-9.6-1.1-15.8-1.1-6.3 0-11.9.4-15.8 1.1l1.8 1.6z"/>
  <path class="st2" d="m155.4 132.5-1.6.7-.9.4v11.7l2.5-2.5z"/>
  <path class="st0" d="M155.4 132.5v10.3l2.6 2.5v-11.7z"/>
  <path class="st3" d="M155.4 132.5c0-.1-.1-.2-.3-.3-.6-.3-1.7-.4-3.1-.4h-.7c-2.8.1-5.4.2-7.3.4-.3 0-.5.1-.8.1l-1.4.2-.4.1-1.8 2.1c.6-.1 1.3-.2 2-.3.2 0 .4 0 .6-.1.4-.1.9-.1 1.3-.1.6-.1 1.2-.1 1.8-.2 2.3-.2 4.9-.3 7.7-.4l2.4-1.1z"/>
  <path class="st0" d="M72.3 131h-.1l-1 .9-.7.7 1.8 2V131z"/>
  <path class="st3" d="m70.5 132.6-.4-.1-1.4-.2c-.2 0-.5-.1-.8-.1-1.6-.2-3.5-.3-5.7-.4H45.7c-1.9.3-2.5 1.1-2.5 1.1l2.5.8h.5c.3 0 .7-.1 1-.1h.3c.3 0 .5 0 .8-.1h13.4c.8 0 1.6.1 2.4.1h.1c.4 0 .8 0 1.1.1.4 0 .8.1 1.2.1h.5c.4 0 .8.1 1.2.1.4 0 .9.1 1.3.1.2 0 .4 0 .6.1.7.1 1.3.2 2 .3l-1.6-1.8z"/>
  <path class="st1" d="m40.6 131 2.5 2.2s.6-.8 2.5-1.1h16.6c2.2.1 4.2.2 5.7.4.3 0 .5.1.8.1l1.4.2.4.1 1.8-1.6c-3.4-.6-8.1-.9-13.3-1h-5.1c-1 0-2.1 0-3.1.1h-3.3c-.3 0-.7 0-1 .1-.3 0-.5 0-.8.1h-.2c-.3 0-.6.1-.9.1h-.1c-.3 0-.5.1-.8.1h-.1c-.2 0-.5.1-.7.1h-.2c-.2 0-.4.1-.7.1h-.2c-.2 0-.4.1-.7.1H41c-.2 0-.4.1-.6.1.3-.2.2-.2.2-.2z"/>
  <path class="st0" d="m45.7 134-2.5-.8v4.5l2.5-1.9V134z"/>
  <path class="st2" d="m40.6 144.2 2.5-2.2v-4.4l-2.5 1.9z"/>
  <path class="st0" d="m71.2 143.3 1 .9h.1v-3.6l-1.8 2.1z"/>
  <path class="st3" d="m72.2 144.2-1-.9-.7-.6-.4.1-1.4.2c-.2 0-.5.1-.8.1-1.6.2-3.5.3-5.7.4H45.6c-1.9-.3-2.5-1.1-2.5-1.1l-2.5 2.2h.1c.2 0 .4.1.6.1h.1c.2 0 .4.1.7.1h.2c.2 0 .4.1.7.1h.2c.2 0 .5.1.7.1h.1c.3 0 .5.1.8.1h.1c.3 0 .6.1.9.1h.2c.3 0 .5 0 .8.1.3 0 .6 0 1 .1.3 0 .7 0 1 .1H51c1 0 2 .1 3.1.1h5.1c5-.4 9.7-.8 13-1.4z"/>
  <path class="st1" d="m45.7 141.2-2.5.8s.6.8 2.5 1.1h16.5c2.2-.1 4.2-.2 5.7-.4.3 0 .5-.1.8-.1l1.4-.2.4-.1 1.8-2.1c-.6.1-1.3.2-2 .3-.2 0-.4 0-.6.1-.4.1-.9.1-1.3.1s-.8.1-1.2.1h-.5c-.4 0-.8.1-1.2.1-.4 0-.7.1-1.1.1h-.1c-.8 0-1.6.1-2.4.1H48.4c-.3 0-.5 0-.8-.1h-.3c-.4 0-.7-.1-1-.1-.3.3-.5.3-.6.3z"/>
  <path class="st2" d="M32.5 135.5v4.3l2-2.2z"/>
  <path class="st0" d="M66.3 139.7v-4.1l-2 2z"/>
  <path class="st1" d="M43.1 137.6h21.2l2-2.1s-.7.2-16.9.2h-3.7c0 .1-2.6 1.9-2.6 1.9z"/>
  <path class="st1" d="M40.6 137.6h2.6l-2.6-1.9c-7.7-.1-8.1-.3-8.1-.3l2 2.1h6.1z"/>
  <path class="st3" d="M43.1 137.6h-8.7l-2 2.1s.4-.2 8.1-.3l2.6-1.8zM43.1 137.6l2.5 1.9h3.7c16.2 0 16.9.2 16.9.2l-2-2.1H43.1z"/>
  <path class="st2" d="M43.1 137.6v-4.4l-2.5-2.2v4.7z"/>
  <path class="st0" d="M43.1 137.6v4.4l2.5-.8v-1.7c.1 0-2.5-1.9-2.5-1.9zM215.5 131h-.1l-1 .9-.7.7 1.8 2V131z"/>
  <path class="st3" d="m213.7 132.6-.4-.1-1.4-.2c-.2 0-.5-.1-.8-.1-1.6-.2-3.5-.3-5.7-.4H188.9c-1.9.3-2.5 1.1-2.5 1.1l2.5.8h.5c.3 0 .7-.1 1-.1h.3c.3 0 .5 0 .8-.1h13.4c.8 0 1.6.1 2.4.1h.1c.4 0 .8 0 1.1.1.4 0 .8.1 1.2.1h.5c.4 0 .8.1 1.2.1.4 0 .9.1 1.3.1.2 0 .4 0 .6.1.7.1 1.3.2 2 .3l-1.6-1.8z"/>
  <path class="st1" d="m183.8 131 2.5 2.2s.6-.8 2.5-1.1h16.6c2.2.1 4.2.2 5.7.4.3 0 .5.1.8.1l1.4.2.4.1.7-.6 1-.9.1-.1c-3.4-.6-8.1-.9-13.3-1h-5.1c-1 0-2.1 0-3.1.1h-3.3c-.3 0-.7 0-1 .1-.3 0-.5 0-.8.1h-.2c-.3 0-.6.1-.9.1h-.1c-.3 0-.5.1-.8.1h-.1c-.2 0-.5.1-.7.1h-.2c-.2 0-.4.1-.7.1h-.2c-.2 0-.4.1-.7.1h-.1c-.2 0-.4.1-.6.1.3-.2.3-.2.2-.2z"/>
  <path class="st0" d="m188.9 134-2.5-.8v4.4l2.5-1.9V134z"/>
  <path class="st2" d="m183.8 144.2 2.6-2.2v-4.4l-2.6 1.9z"/>
  <path class="st0" d="M215.5 144.2v-3.6l-1.8 2.1z"/>
  <path class="st3" d="m213.7 142.7-.4.1-1.4.2c-.2 0-.5.1-.8.1-1.6.2-3.5.3-5.7.4h-16.6c-1.9-.3-2.5-1.1-2.5-1.1l-2.5 2.2h.1c.2 0 .4.1.6.1h.1c.2 0 .4.1.7.1h.2c.2 0 .4.1.7.1h.2c.2 0 .5.1.7.1h.1c.3 0 .5.1.8.1h.1c.3 0 .6.1.9.1h.2c.3 0 .5 0 .8.1.3 0 .6 0 1 .1.3 0 .7 0 1 .1h2.2c1 0 2 .1 3.1.1h5.1c5.2-.1 9.9-.5 13.3-1l-2-1.9z"/>
  <path class="st1" d="m188.9 141.2-2.5.8s.6.8 2.5 1.1h16.5c2.2-.1 4.2-.2 5.7-.4.3 0 .5-.1.8-.1l1.4-.2.4-.1 1.8-2.1c-.6.1-1.3.2-2 .3-.2 0-.4 0-.6.1-.4.1-.9.1-1.3.1s-.8.1-1.2.1h-.5c-.4 0-.8.1-1.2.1-.4 0-.7.1-1.1.1h-.1c-.8 0-1.6.1-2.4.1h-13.5c-.3 0-.5 0-.8-.1h-.3c-.4 0-.7-.1-1-.1-.3.3-.4.3-.6.3z"/>
  <path class="st2" d="M175.7 135.5v4.3l2-2.2z"/>
  <path class="st0" d="M209.5 139.7v-4.1l-2 2z"/>
  <path class="st1" d="M186.4 137.6h21.2l2-2.1s-.7.2-16.9.2H189l-2.6 1.9zM186.4 137.6l-2.6-1.9c-7.7-.1-8.1-.3-8.1-.3l2 2.1h8.7z"/>
  <path class="st3" d="M186.4 137.6h-8.7l-2 2.1s.4-.2 8.1-.3l2.6-1.8zM186.4 137.6l2.5 1.9h3.7c16.2 0 16.9.2 16.9.2l-2-2.1h-21.1z"/>
  <path class="st2" d="M186.4 137.6v-4.4l-2.6-2.2v4.7z"/>
  <path class="st0" d="M186.4 137.6v4.4l2.5-.8v-1.7l-2.5-1.9z"/>
  <g>
    <radialGradient id="SVGID_1_" cx="148.457" cy="84.312" r="51.472" gradientTransform="matrix(1.0138 0 0 .8011 -22.704 16.026)" gradientUnits="userSpaceOnUse">
      <stop offset=".901" style="stop-color:#292b2c"/>
      <stop offset=".979" style="stop-color:#292b2c;stop-opacity:0"/>
    </radialGradient>
    <ellipse cx="127.8" cy="83.6" rx="51.4" ry="40.6" style="fill:url(#SVGID_1_)"/>
    <linearGradient id="SVGID_2_" gradientUnits="userSpaceOnUse" x1="87.479" y1="109.179" x2="166.354" y2="55.338">
      <stop offset="0" style="stop-color:#88898c"/>
      <stop offset=".079" style="stop-color:#6d6f72"/>
      <stop offset=".263" style="stop-color:#d5d6d8"/>
      <stop offset=".404" style="stop-color:#7c7e80"/>
      <stop offset=".506" style="stop-color:#c3c4c6"/>
      <stop offset=".607" style="stop-color:#a2a4a7"/>
      <stop offset=".706" style="stop-color:#f4f4f6"/>
      <stop offset=".813" style="stop-color:#7c7e81"/>
      <stop offset=".912" style="stop-color:#c1c2c5"/>
      <stop offset="1" style="stop-color:#f4f4f6"/>
    </linearGradient>
    <ellipse cx="127.1" cy="82.1" rx="50.7" ry="39.2" style="fill:url(#SVGID_2_)"/>
    <linearGradient id="SVGID_3_" gradientUnits="userSpaceOnUse" x1="89.235" y1="56.587" x2="164.973" y2="107.673">
      <stop offset="0" style="stop-color:#f4f4f6"/>
      <stop offset=".088" style="stop-color:#c1c2c5"/>
      <stop offset=".187" style="stop-color:#7c7e81"/>
      <stop offset=".294" style="stop-color:#f4f4f6"/>
      <stop offset=".393" style="stop-color:#a2a4a7"/>
      <stop offset=".493" style="stop-color:#c3c4c6"/>
      <stop offset=".596" style="stop-color:#7c7e80"/>
      <stop offset=".737" style="stop-color:#d5d6d8"/>
      <stop offset=".921" style="stop-color:#6d6f72"/>
      <stop offset="1" style="stop-color:#88898c"/>
    </linearGradient>
    <ellipse cx="127.1" cy="82.1" rx="49" ry="37.4" style="fill:url(#SVGID_3_)"/>
    <radialGradient id="SVGID_4_" cx="127.104" cy="82.13" r="50.118" gradientTransform="matrix(1 0 0 .7595 0 19.752)" gradientUnits="userSpaceOnUse">
      <stop offset=".871" style="stop-color:#fff"/>
      <stop offset=".887" style="stop-color:#9b9b9b"/>
      <stop offset=".916" style="stop-color:#202020"/>
    </radialGradient>
    <ellipse cx="127.1" cy="82.1" rx="47.2" ry="35.8" style="fill:url(#SVGID_4_)"/>
    <path d="M123.7 76.5c-3 .4-5.7.7-8.2.7h-.2c-3.3 0-5.9-1.4-5.9-3.2 0-.5 0-1 .1-1.5.9-3.9 5.5-7.9 16.4-8h3c13.2.4 24.1 4.1 33.2 11.3.9.7 2.1.8 3.1.3.1 0 .1-.1.2-.1.5-.3.9-.9 1.1-1.4.1-.5.1-1.1-.1-1.6-.1-.1-.1-.3-.2-.4-1.3-3-3.2-5.9-5.7-8.4-2.5-2.6-5.5-4.9-9-6.8-7.1-3.9-15.5-6-24.4-6-10.8 0-21 3.1-28.8 8.8-3.8 2.8-6.8 6.1-9 9.8-2.2 3.9-3.4 8-3.4 12.3 0 4.3 1.1 8.4 3.4 12.3 2.1 3.7 5.1 7 9 9.8 7.7 5.7 17.9 8.8 28.8 8.8 8.9 0 17.3-2.1 24.4-6 3.5-1.9 6.5-4.2 9-6.8 2.6-2.7 4.6-5.7 5.9-8.8.3-.7.3-1.5-.1-2.1-.2-.4-.5-.8-.9-1-1-.6-2.3-.6-3.3.2-9.2 7.2-20.3 10.9-33.7 11.3H126c-12.3 0-16.7-5.1-16.7-9.4 0-1.8 2.6-3.2 6-3.3h1.7c2.1.1 4.2.3 6.5.6.6.1 1.2.1 1.8.2 4.4.5 9.9 1.1 17.9 1.1h1.8c12.6-.1 20.1-1.9 20.9-2 .1 0 1.6-.3 1.6-.3h.1s.1-.4.2-.9.2-1 .2-1.1v-.1c.1-.8.1-1.7.1-2.5s0-1.7-.1-2.5c0 0-.1-.8-.2-1.3-.1-.4-.2-.7-.2-.7l-1.7-.3c-.8-.2-8.6-2-21.8-2h-.9c-8.9-.3-14.8.4-19.5 1z" style="opacity:7.692308e-02"/>
    <path d="M123.7 76.6c-3 .4-5.7.7-8.3.7h-.2c-3.3 0-5.8-1.4-6-3.1 0-.5 0-1 .1-1.5.8-4 5.4-8 16.3-8.2h3c13.2.4 24.2 4.1 33.3 11.1.9.7 2.1.9 3 .5.1 0 .1-.1.2-.1.5-.3.9-.8 1.1-1.3.2-.5.2-1.1 0-1.6-.1-.1-.1-.3-.2-.4-1.3-3-3.2-5.9-5.7-8.4-2.5-2.6-5.5-4.9-9-6.8-7.1-3.9-15.5-6-24.4-6-10.8 0-21 3.1-28.7 8.8-3.8 2.8-6.8 6.1-8.9 9.7-2.2 3.9-3.4 8-3.4 12.3s1.1 8.4 3.4 12.3c2.1 3.7 5.1 6.9 8.9 9.7 7.7 5.6 17.9 8.8 28.7 8.8 8.9 0 17.3-2.1 24.4-6 3.5-1.9 6.5-4.2 9-6.8 2.6-2.7 4.5-5.7 5.8-8.8.3-.7.2-1.5-.1-2.1-.2-.4-.6-.7-1-.9-1-.5-2.3-.4-3.2.4-9.2 7.2-20.3 10.8-33.7 11.1h-2.4c-12.2-.1-16.6-5.1-16.6-9.5 0-1.9 2.6-3.3 6-3.3h1.7c2.1.1 4.2.3 6.5.6.6.1 1.2.1 1.8.2 4.4.5 9.9 1.1 17.9 1.1h1.8c12.5-.1 19.9-1.8 20.9-2 .1 0 1.6-.3 1.6-.3h.1s.2-.4.3-.8c.1-.4.2-1 .2-1.1v-.1c.1-.8.1-1.7.1-2.5s0-1.7-.1-2.5c0 0-.1-.8-.2-1.3-.1-.4-.3-.7-.3-.7s-1.6-.3-1.7-.3c-1-.2-8.8-2-21.7-2h-.9c-8.8-.2-14.7.5-19.4 1.1z" style="opacity:.1538"/>
    <path d="M123.7 76.7c-3 .4-5.7.7-8.3.7h-.2c-3.3 0-5.8-1.3-6-3.1-.1-.5-.1-1 0-1.5.7-4 5.3-8.2 16.2-8.3h3c13.3.4 24.2 4 33.3 11 .9.7 2.1.9 3 .6.1 0 .1 0 .2-.1.5-.2 1-.7 1.2-1.2.2-.5.2-1.1 0-1.6 0-.1-.1-.3-.2-.4-1.3-3-3.2-5.9-5.7-8.5-2.5-2.6-5.5-4.9-9-6.8-7.1-3.9-15.5-6-24.3-6-10.8 0-21 3.1-28.7 8.7-3.8 2.8-6.8 6.1-8.9 9.7-2.2 3.9-3.4 8-3.4 12.2s1.1 8.4 3.4 12.2c2.1 3.7 5.1 6.9 8.9 9.7 7.7 5.6 17.9 8.7 28.7 8.7 8.8 0 17.3-2.1 24.3-6 3.4-1.9 6.5-4.2 9-6.8 2.6-2.7 4.5-5.6 5.8-8.8.3-.7.2-1.5-.1-2.1-.3-.4-.7-.7-1.1-.8-1-.3-2.2-.2-3.2.5-9.2 7.1-20.3 10.7-33.8 11h-2.4c-12.1-.1-16.5-5.2-16.5-9.5 0-1.9 2.5-3.3 5.9-3.4h1.7c2.1.1 4.2.3 6.5.6.6.1 1.2.1 1.8.2 4.4.5 9.9 1.1 17.9 1.1h1.8c12.3-.1 19.7-1.7 20.9-2 .2 0 1.6-.3 1.6-.3h.1s.3-.4.3-.8c.1-.4.2-1 .2-1.1v-.1c.1-.8.1-1.7.1-2.5s0-1.7-.1-2.5c0 0-.1-.8-.2-1.3-.1-.3-.3-.6-.3-.6s-1.5-.3-1.7-.3c-1.2-.2-8.9-1.9-21.6-2h-.8c-8.7.2-14.6.9-19.3 1.5z" style="opacity:.2308"/>
    <path d="M123.7 76.8c-3 .4-5.7.7-8.3.7h-.2c-3.3 0-5.8-1.3-6.1-3-.1-.5-.1-1 0-1.5.7-4 5.1-8.3 16-8.5h3c13.3.3 24.2 3.9 33.4 10.9.9.7 2 .9 3 .7.1 0 .1 0 .2-.1.5-.2 1-.6 1.3-1.1.2-.5.3-1 .1-1.6 0-.2-.1-.3-.2-.4-1.3-3-3.2-5.9-5.7-8.5-2.5-2.6-5.5-4.9-8.9-6.8-7.1-3.9-15.5-6-24.3-6-10.8 0-20.9 3.1-28.6 8.7-3.8 2.8-6.8 6.1-8.9 9.7-2.2 3.8-3.3 7.9-3.3 12.2s1.1 8.3 3.3 12.2c2.1 3.6 5.1 6.9 8.9 9.7 7.7 5.6 17.8 8.7 28.6 8.7 8.8 0 17.2-2.1 24.3-6 3.4-1.9 6.4-4.2 8.9-6.8 2.6-2.7 4.5-5.6 5.8-8.8.3-.7.2-1.5-.2-2.1-.3-.4-.8-.6-1.2-.7-1-.2-2.2-.1-3.2.7-9.3 7-20.3 10.6-33.8 10.9h-2.4c-12.1-.2-16.4-5.3-16.4-9.6 0-1.9 2.5-3.4 5.9-3.5h1.7c2.1.1 4.2.3 6.5.6.6.1 1.2.1 1.8.2 4.4.5 9.9 1.1 17.9 1.1h1.8c12.1-.1 19.6-1.7 20.9-2 .3-.1 1.6-.3 1.6-.3h.1s.3-.4.4-.7c.1-.4.2-1 .2-1.1v-.1c.1-.8.1-1.7.1-2.5s0-1.7-.1-2.5c0 0-.1-.9-.2-1.3 0-.3-.4-.6-.4-.6s-1.4-.3-1.7-.3c-1.4-.3-9-1.9-21.5-2h-.8c-8.8.1-14.6.8-19.3 1.4z" style="opacity:.3077"/>
    <path d="M123.7 76.8c-3 .4-5.7.7-8.3.7h-.2c-3.3 0-5.8-1.3-6.1-3-.1-.5-.1-1 0-1.5.6-4.1 5-8.4 15.9-8.7h3c13.3.3 24.3 3.8 33.5 10.7.9.7 2 1 2.9.9h.2c.5-.1 1-.5 1.3-1 .3-.5.3-1 .2-1.6 0-.2-.1-.3-.2-.5-1.3-3-3.2-5.9-5.7-8.5-2.5-2.6-5.5-4.9-8.9-6.8-7-3.9-15.4-6-24.2-6-10.8 0-20.9 3.1-28.6 8.7-3.8 2.8-6.8 6-8.9 9.7-2.2 3.8-3.3 7.9-3.3 12.1s1.1 8.3 3.3 12.1c2.1 3.6 5.1 6.9 8.9 9.7 7.7 5.6 17.8 8.7 28.6 8.7 8.8 0 17.2-2.1 24.2-6 3.4-1.9 6.4-4.2 8.9-6.8 2.6-2.7 4.5-5.6 5.8-8.7.3-.7.2-1.5-.2-2-.3-.4-.8-.6-1.3-.7-1-.1-2.2.1-3.1.8-9.3 7-20.4 10.5-33.8 10.7h-2.4c-12-.2-16.3-5.3-16.3-9.7 0-1.9 2.5-3.4 5.8-3.6h1.7c2.1.1 4.2.3 6.5.6.6.1 1.2.1 1.8.2 4.4.5 9.9 1.1 17.9 1.2h1.8c12-.1 19.4-1.6 20.9-1.9.4-.1 1.5-.3 1.6-.3h.1s.4-.4.4-.6c.1-.3.2-.9.2-1.1v-.1c.1-.8.1-1.7.1-2.5s0-1.7-.1-2.5c0 0-.1-.9-.2-1.3 0-.3-.5-.6-.5-.6s-1.3-.3-1.7-.3c-1.5-.3-9.2-1.9-21.4-1.9h-.8c-8.8.1-14.6.9-19.3 1.4z" style="opacity:.3846"/>
    <path d="M123.7 76.9c-3 .4-5.7.7-8.3.7h-.2c-3.3 0-5.8-1.3-6.2-3-.1-.5-.2-1-.1-1.5.5-4.1 4.9-8.6 15.8-8.9h3c13.3.3 24.3 3.7 33.6 10.6.9.7 2 1 2.9 1h.2c.5-.1 1.1-.4 1.4-.9.3-.4.4-1 .2-1.6 0-.2-.1-.3-.2-.5-1.3-3-3.2-5.9-5.7-8.5-2.5-2.6-5.5-4.9-8.9-6.8-7-3.9-15.4-5.9-24.2-5.9-10.7 0-20.9 3.1-28.5 8.7-3.8 2.8-6.8 6-8.9 9.6-2.2 3.8-3.3 7.9-3.3 12.1s1.1 8.3 3.3 12.1c2.1 3.6 5.1 6.9 8.9 9.6 7.6 5.6 17.8 8.7 28.5 8.7 8.8 0 17.2-2.1 24.2-5.9 3.4-1.9 6.4-4.2 8.9-6.8 2.5-2.7 4.5-5.6 5.8-8.7.3-.7.2-1.5-.3-2-.4-.4-.9-.6-1.4-.6-1 0-2.1.3-3.1 1-9.3 6.9-20.4 10.4-33.8 10.6h-2.4c-11.9-.3-16.1-5.4-16.1-9.8 0-2 2.4-3.4 5.8-3.6h1.7c2.1.1 4.2.3 6.5.6.6.1 1.2.1 1.8.2 4.4.5 9.9 1.1 17.9 1.2h1.8c11.8-.1 19.2-1.6 20.9-1.9.4-.1 1.5-.3 1.6-.3h.1s.5-.3.5-.6.2-.9.2-1.1v-.1c.1-.8.1-1.7.1-2.5s0-1.7-.1-2.5c0 0-.2-1-.2-1.3 0-.2-.5-.5-.5-.5s-1.2-.3-1.7-.3c-1.7-.3-9.3-1.9-21.4-1.9h-.8c-8.8 0-14.6.7-19.3 1.3z" style="opacity:.4615"/>
    <path d="M123.8 77c-3 .4-5.7.7-8.3.7h-.2c-3.2 0-5.7-1.3-6.2-2.9-.1-.5-.2-1-.1-1.5.5-4.2 4.7-8.7 15.6-9.1h3c13.4.2 24.4 3.7 33.6 10.5.9.7 2 1 2.9 1.2h.2c.5 0 1.1-.3 1.4-.8.3-.4.4-1 .3-1.5 0-.2-.1-.3-.1-.5-1.3-3-3.2-5.9-5.7-8.5-2.5-2.6-5.5-4.8-8.9-6.7-7-3.9-15.4-5.9-24.2-5.9-10.7 0-20.8 3.1-28.5 8.7-3.8 2.8-6.7 6-8.8 9.6-2.2 3.8-3.3 7.9-3.3 12s1.1 8.2 3.3 12c2.1 3.6 5.1 6.9 8.8 9.6 7.6 5.6 17.7 8.7 28.5 8.7 8.8 0 17.1-2.1 24.2-5.9 3.4-1.9 6.4-4.2 8.9-6.7 2.5-2.7 4.5-5.6 5.8-8.7.3-.7.2-1.5-.3-2-.4-.4-1-.6-1.5-.5-.9.1-2.1.4-3 1.1-9.3 6.8-20.4 10.3-33.8 10.4H125c-11.8-.3-16-5.5-16-9.8 0-2 2.4-3.5 5.7-3.7.6 0 1.1-.1 1.7 0 2.1 0 4.2.3 6.5.6.6.1 1.2.1 1.8.2 4.4.5 9.9 1.2 17.8 1.2h1.8c11.6-.1 19-1.5 20.9-1.9.5-.1 1.5-.3 1.6-.3h.1s.5-.3.6-.5c0-.2.1-.9.2-1.1v-.1c.1-.8.1-1.7.1-2.5s0-1.6-.1-2.5c0 0-.2-1-.2-1.3 0-.2-.6-.5-.6-.5s-1.1-.2-1.7-.3c-1.9-.4-9.4-1.8-21.3-1.9h-.8c-8.9-.2-14.7.5-19.3 1.1z" style="opacity:.5385"/>
    <path d="M123.8 77.1c-3.1.4-5.7.7-8.3.7h-.2c-3.2 0-5.7-1.2-6.3-2.9-.2-.5-.2-1-.2-1.5.4-4.2 4.6-8.8 15.5-9.3 1 0 2-.1 3 0 13.4.2 24.4 3.6 33.7 10.4.9.7 1.9 1.1 2.9 1.3h.2c.5 0 1.1-.2 1.5-.7.3-.4.5-1 .3-1.5 0-.2-.1-.3-.1-.5-1.3-3-3.2-5.9-5.7-8.5-2.5-2.6-5.4-4.8-8.9-6.7-7-3.9-15.4-5.9-24.1-5.9-10.7 0-20.8 3.1-28.4 8.7-3.8 2.8-6.7 6-8.8 9.6-2.2 3.8-3.3 7.8-3.3 12s1.1 8.2 3.3 12c2.1 3.6 5 6.8 8.8 9.6 7.6 5.6 17.7 8.7 28.4 8.7 8.8 0 17.1-2.1 24.1-5.9 3.4-1.9 6.4-4.1 8.9-6.7 2.5-2.6 4.5-5.6 5.7-8.7.3-.7.2-1.5-.3-2-.4-.4-1-.5-1.6-.4-.9.2-2 .6-3 1.3-9.3 6.8-20.4 10.1-33.9 10.3h-2.4c-11.7-.4-15.9-5.5-15.9-9.9 0-2 2.4-3.5 5.7-3.8.5 0 1.1-.1 1.7 0 2.1 0 4.2.3 6.5.5.6.1 1.2.1 1.8.2 4.4.5 9.8 1.2 17.8 1.2h1.8c11.5-.1 18.8-1.4 20.9-1.9.6-.1 1.5-.3 1.6-.3h.1s.6-.3.6-.5.1-.9.2-1.1v-.1c.1-.8.1-1.7.1-2.5s0-1.6-.1-2.5c0 0-.2-1.1-.2-1.3 0-.2-.7-.4-.7-.4-.1 0-1.1-.2-1.7-.3-2.1-.4-9.6-1.8-21.2-1.8h-.8c-8.7-.2-14.4.5-19 1.1z" style="opacity:.6154"/>
    <path d="M123.8 77.2c-3.1.4-5.7.7-8.3.7h-.2c-3.2 0-5.7-1.2-6.4-2.9-.2-.5-.3-1-.2-1.5.3-4.2 4.5-9 15.3-9.5 1 0 2-.1 3-.1 13.4.1 24.5 3.5 33.8 10.2.9.7 1.9 1.1 2.8 1.4.1 0 .1 0 .2.1.6.1 1.1-.1 1.6-.6.4-.4.5-1 .4-1.5 0-.2-.1-.3-.1-.5-1.3-3-3.2-5.9-5.7-8.5-2.5-2.6-5.4-4.8-8.8-6.7-7-3.9-15.3-5.9-24.1-5.9-10.7 0-20.8 3.1-28.4 8.6-3.8 2.8-6.7 6-8.8 9.6-2.2 3.8-3.3 7.8-3.3 12s1.1 8.2 3.3 12c2.1 3.6 5 6.8 8.8 9.6 7.6 5.6 17.7 8.6 28.4 8.6 8.8 0 17.1-2 24.1-5.9 3.4-1.9 6.4-4.1 8.8-6.7 2.5-2.6 4.5-5.5 5.7-8.6.3-.7.1-1.5-.4-2s-1.1-.5-1.7-.3c-.9.3-2 .8-3 1.5-9.3 6.7-20.4 10-33.9 10.2h-2.4c-11.7-.4-15.8-5.6-15.8-10 0-2 2.3-3.6 5.6-3.9.5 0 1.1-.1 1.7-.1 2.1 0 4.2.3 6.5.5.6.1 1.2.1 1.8.2 4.4.5 9.8 1.2 17.8 1.2h1.8c11.3 0 18.6-1.4 20.9-1.8.6-.1 1.5-.3 1.6-.3h.1s.7-.3.7-.4c0-.2.1-.9.2-1.1v-.1c.1-.8.1-1.7.1-2.5s0-1.6-.1-2.5c0 0-.2-1.1-.2-1.3 0-.1-.8-.4-.8-.4-.1 0-1-.2-1.7-.3-2.3-.5-9.7-1.8-21.1-1.8h-.8c-8.5 0-14.2.7-18.8 1.3z" style="opacity:.6923"/>
    <path d="M123.8 77.2c-3.1.4-5.7.7-8.3.7h-.2c-3.2 0-5.7-1.2-6.4-2.8-.2-.5-.3-1-.3-1.5.2-4.3 4.3-9.1 15.2-9.7 1-.1 2-.1 3-.1 13.4.1 24.5 3.4 33.9 10.1.9.7 1.9 1.2 2.8 1.6.1 0 .1.1.2.1.6.2 1.2 0 1.6-.5.4-.4.6-1 .5-1.5 0-.2-.1-.3-.1-.5-1.3-3-3.2-5.9-5.7-8.5-2.5-2.6-5.4-4.8-8.8-6.7-7-3.9-15.3-5.9-24.1-5.9-10.7 0-20.7 3.1-28.3 8.6-3.7 2.7-6.7 6-8.8 9.5-2.2 3.8-3.3 7.8-3.3 11.9s1.1 8.2 3.3 11.9c2.1 3.6 5 6.8 8.8 9.5 7.6 5.6 17.6 8.6 28.3 8.6 8.7 0 17.1-2 24.1-5.9 3.4-1.9 6.4-4.1 8.8-6.7 2.5-2.6 4.4-5.5 5.7-8.6.3-.7.1-1.5-.4-2s-1.2-.5-1.7-.2c-.9.4-2 .9-2.9 1.6-9.3 6.6-20.5 9.9-33.9 10h-2.4c-11.6-.5-15.7-5.6-15.7-10.1 0-2 2.3-3.6 5.6-3.9.5-.1 1.1-.1 1.7-.1 2.1 0 4.2.2 6.5.5.6.1 1.2.1 1.8.2 4.4.5 9.8 1.2 17.8 1.2h1.8c11.1 0 18.5-1.3 20.9-1.8.7-.1 1.5-.3 1.6-.3h.1s.7-.2.7-.4c0-.1.1-.8.2-1.1v-.1c.1-.8.1-1.7.1-2.5s0-1.6-.1-2.5c0 0-.2-1.1-.2-1.3 0-.1-.8-.3-.8-.3-.1 0-.9-.2-1.6-.3-2.5-.5-9.8-1.8-21.1-1.8h-.8c-8.8.4-14.5 1.1-19.1 1.6z" style="opacity:.7692"/>
    <path d="M123.8 77.3c-3.1.4-5.7.7-8.3.7h-.2c-3.2 0-5.7-1.2-6.5-2.8-.2-.5-.3-1-.3-1.5.1-4.3 4.2-9.2 15.1-9.9 1-.1 2-.1 3-.1 13.5.1 24.6 3.3 33.9 10 .9.6 1.9 1.2 2.8 1.7.1 0 .1.1.2.1.6.2 1.2.1 1.7-.3.4-.4.6-.9.5-1.5 0-.2-.1-.3-.1-.5-1.3-3-3.2-5.9-5.7-8.5-2.4-2.6-5.4-4.8-8.8-6.7-7-3.9-15.3-5.9-24-5.9-10.7 0-20.7 3.1-28.3 8.6-3.7 2.7-6.7 5.9-8.7 9.5-2.2 3.8-3.3 7.8-3.3 11.9s1.1 8.1 3.3 11.9c2.1 3.6 5 6.8 8.7 9.5 7.6 5.6 17.6 8.6 28.3 8.6 8.7 0 17-2 24-5.9 3.4-1.9 6.3-4.1 8.8-6.7 2.5-2.6 4.4-5.5 5.7-8.6.3-.7.1-1.5-.5-2-.5-.5-1.3-.5-1.8-.1-.9.5-1.9 1.1-2.9 1.8-9.3 6.6-20.5 9.8-33.9 9.9h-2.4c-11.5-.5-15.6-5.7-15.6-10.2 0-2.1 2.3-3.6 5.5-4 .5-.1 1.1-.1 1.7-.1 2.1 0 4.2.2 6.5.5.6.1 1.2.1 1.8.2 4.4.5 9.8 1.2 17.8 1.3h1.8c11 0 18.3-1.3 20.9-1.8.8-.2 1.5-.3 1.6-.3h.1s.8-.2.8-.3c0-.1.1-.8.2-1.1v-.1c.1-.8.1-1.7.1-2.5s0-1.6-.1-2.4c0 0-.2-1.2-.2-1.3 0-.1-.9-.3-.9-.3-.1 0-.8-.2-1.6-.3-2.7-.5-10-1.8-21-1.8h-.8c-8.6.1-14.3.8-18.9 1.3z" style="opacity:.8462"/>
    <path d="M123.8 77.4c-3.1.4-5.7.7-8.4.7h-.2c-3.2 0-5.6-1.1-6.5-2.8-.3-.5-.4-1-.4-1.5.1-4.4 4.1-9.3 14.9-10.1 1-.1 2-.1 3-.1 13.5 0 24.6 3.3 34 9.8.9.6 1.8 1.3 2.7 1.9.1 0 .1.1.2.1.6.3 1.2.2 1.7-.2.4-.4.7-.9.6-1.5 0-.2-.1-.3-.1-.5-1.3-3.1-3.2-5.9-5.7-8.5-2.4-2.6-5.4-4.8-8.8-6.7-7-3.9-15.3-5.9-24-5.9-10.6 0-20.7 3.1-28.2 8.6-3.7 2.7-6.7 5.9-8.7 9.5-1.9 3.8-3 7.8-3 11.9 0 4.1 1.1 8.1 3.3 11.8 2.1 3.6 5 6.8 8.7 9.5 7.6 5.5 17.6 8.6 28.2 8.6 8.7 0 17-2 24-5.9 3.4-1.9 6.3-4.1 8.8-6.7 2.5-2.6 4.4-5.5 5.7-8.6.3-.7.1-1.5-.5-2s-1.3-.5-1.9-.1c-.9.6-1.9 1.3-2.9 1.9-9.4 6.5-20.5 9.7-33.9 9.7-.8 0-1.6 0-2.4-.1-11.4-.6-15.5-5.8-15.5-10.2 0-2.1 2.2-3.7 5.5-4.1.5-.1 1.1-.1 1.7-.1 2.1 0 4.2.2 6.5.5.6.1 1.2.1 1.8.2 4.4.5 9.8 1.2 17.8 1.3h1.8c10.8 0 18.1-1.2 20.9-1.7.9-.2 1.5-.3 1.5-.3h.1l.9-.2s.1-.8.2-1.1v-.1c.1-.8.1-1.7.1-2.5s0-1.6-.1-2.4c0 0-.2-1.2-.2-1.3l-1-.2c-.1 0-.7-.2-1.6-.3-2.9-.6-10.1-1.7-20.9-1.7h-.8c-8.7.1-14.3.8-18.9 1.4z" style="opacity:.9231"/>
    <path d="M167.2 82.1c0-.8 0-1.6-.1-2.4l-.2-1.3-1-.2c-.3-.1-8.5-2.1-22.5-2.1-9 0-14.9.7-19.6 1.3-3.1.4-5.7.7-8.4.7h-.2c-4.1 0-7-1.8-7-4.3 0-4.8 4.7-10.4 17.8-10.4 14.8 0 26.8 3.8 36.8 11.7.6.5 1.4.5 2 0 .6-.5.8-1.2.5-1.9-1.3-3.1-3.2-5.9-5.7-8.5-2.4-2.5-5.4-4.8-8.8-6.6-7-3.8-15.2-5.9-23.9-5.9-10.6 0-20.6 3-28.2 8.6-3.7 2.7-6.6 5.9-8.7 9.5-1.9 3.8-3 7.7-3 11.8s1.1 8.1 3.2 11.8c2.1 3.6 5 6.7 8.7 9.5 7.5 5.5 17.6 8.6 28.2 8.6 8.7 0 17-2 23.9-5.9 3.4-1.9 6.3-4.1 8.8-6.6 2.5-2.6 4.4-5.5 5.7-8.5.3-.7.1-1.5-.5-1.9-.6-.5-1.4-.4-2 0-9.9 7.9-22 11.7-36.8 11.7-13.2 0-17.8-5.6-17.8-10.4 0-2.5 3-4.3 7.1-4.3 2.7 0 5.3.3 8.4.7 4.7.6 10.6 1.3 19.6 1.3 14 0 22.1-2 22.5-2.1l1-.2.2-1.2v-2.5z"/>
    <linearGradient id="SVGID_5_" gradientUnits="userSpaceOnUse" x1="90.42" y1="95.493" x2="163.83" y2="68.773">
      <stop offset="0" style="stop-color:#88898c"/>
      <stop offset=".079" style="stop-color:#6d6f72"/>
      <stop offset=".333" style="stop-color:#d5d6d8"/>
      <stop offset=".574" style="stop-color:#a2a4a7"/>
      <stop offset=".737" style="stop-color:#f4f4f6"/>
      <stop offset=".874" style="stop-color:#c1c2c5"/>
      <stop offset="1" style="stop-color:#f4f4f6"/>
    </linearGradient>
    <path d="M167.3 82.1c0-.8 0-1.6-.1-2.4l-.2-1.3-1-.2c-.3-.1-8.5-2.1-22.5-2.1-9 0-14.9.7-19.6 1.3-3.1.4-5.7.7-8.4.7h-.2c-4.1 0-7-1.8-7-4.3 0-4.8 4.7-10.4 17.8-10.4 14.8 0 26.8 3.8 36.8 11.7.6.5 1.4.5 2 0 .6-.5.8-1.2.5-1.9-1.3-3.1-3.2-5.9-5.7-8.5-2.4-2.5-5.4-4.8-8.8-6.6-7-3.8-15.2-5.9-23.9-5.9-10.6 0-20.6 3-28.2 8.6-3.7 2.7-6.6 5.9-8.7 9.5-2 3.8-3.1 7.7-3.1 11.8s1.1 8.1 3.2 11.8c2.1 3.6 5 6.7 8.7 9.5 7.5 5.5 17.6 8.6 28.2 8.6 8.7 0 17-2 23.9-5.9 3.4-1.9 6.3-4.1 8.8-6.6 2.5-2.6 4.4-5.5 5.7-8.5.3-.7.1-1.5-.5-1.9-.6-.5-1.4-.4-2 0-9.9 7.9-22 11.7-36.8 11.7-13.2 0-17.8-5.6-17.8-10.4 0-2.5 3-4.3 7.1-4.3 2.7 0 5.3.3 8.4.7 4.7.6 10.6 1.3 19.6 1.3 14 0 22.1-2 22.5-2.1l1-.2.2-1.2c0-.8.1-1.7.1-2.5z" style="fill:url(#SVGID_5_)"/>
    <g>
      <path class="st22" d="M164 90.3zM165.5 84.4zM165.5 79.8zM164 74z"/>
    </g>
    <g>
      <path class="st23" d="M115.5 84.4c6.8 0 13 2 27.9 2 14 0 22.1-2 22.1-2 .1-.8.1-1.5.1-2.3H88.7c0 15.6 17.2 28.2 38.5 28.2 17.4 0 32-8.4 36.8-20-10.3 8.2-22.7 12-37.8 12-15.1 0-19.5-7.1-19.5-12 0-3.5 3.8-5.9 8.8-5.9z"/>
      <path class="st23" d="M127.1 110.8c-10.4 0-20.1-3-27.4-8.3-7.4-5.5-11.4-12.7-11.4-20.4v-.4H166v.4c0 .8 0 1.6-.1 2.3v.3l-.3.1c-2.8.7-11.1 2-22.2 2-8.9 0-14.7-.7-19.4-1.3-3.1-.4-5.8-.7-8.5-.7-2.4 0-4.5.6-6 1.6s-2.3 2.4-2.3 3.9c0 5.4 5 11.6 19.1 11.6 15.1 0 27.4-3.9 37.5-12 .3-.3.8.1.6.5-2.4 5.8-7.3 10.9-13.9 14.6-6.8 3.8-14.9 5.8-23.4 5.8zm-38-28.3c.3 15.1 17.3 27.4 38.1 27.4 8.4 0 16.3-1.9 22.9-5.6 5.8-3.2 10.3-7.7 12.8-12.7-10.1 7.5-22.1 11.1-36.7 11.1-6.9 0-12.1-1.4-15.7-4.2-2.7-2.1-4.2-5.1-4.2-8.2 0-1.8 1-3.5 2.7-4.6 1.7-1.1 4-1.7 6.5-1.7 2.8 0 5.5.3 8.6.7 4.7.6 10.4 1.3 19.3 1.3 10.6 0 18.6-1.2 21.7-1.9 0-.5.1-1 .1-1.5H89.1z"/>
    </g>
    <g>
      <path class="st23" d="M165.5 79.8s-8.1-2-22.1-2c-14.9 0-21.1 2-27.9 2-5 0-8.8-2.4-8.8-5.9 0-5 4.4-12 19.5-12s27.5 3.9 37.8 12c-4.8-11.6-19.5-20-36.8-20-21.2 0-38.5 12.6-38.5 28.2h76.9c0-.7 0-1.5-.1-2.3z"/>
      <path class="st23" d="M166 82.5H88.3v-.4c0-7.7 4.1-14.9 11.4-20.3 7.3-5.4 17.1-8.3 27.4-8.3 8.5 0 16.6 2 23.3 5.7 6.6 3.6 11.5 8.8 13.9 14.6.2.4-.3.7-.6.5-10.2-8-22.5-12-37.5-12-14.1 0-19.1 6.3-19.1 11.6 0 1.6.8 2.9 2.3 3.9 1.5 1 3.5 1.5 5.8 1.5h.3c2.7 0 5.4-.3 8.5-.7 4.7-.6 10.5-1.3 19.4-1.3 11.1 0 19.3 1.3 22.1 2l.3.1v.4c.1.8.1 1.5.1 2.3v.4zm-76.9-.8h76.1c0-.5 0-1-.1-1.5h-.2v-.1c-3.1-.7-11.1-1.9-21.5-1.9-8.9 0-14.7.7-19.3 1.3-3 .4-5.6.7-8.2.7h-.4c-2.5 0-4.8-.6-6.5-1.7-1.7-1.1-2.7-2.8-2.7-4.6 0-3.1 1.5-6 4.2-8.2 3.5-2.8 8.8-4.2 15.7-4.2 14.6 0 26.7 3.6 36.7 11.1-2.5-5-7-9.5-12.8-12.7-6.6-3.7-14.6-5.6-22.9-5.6-20.9 0-37.8 12.3-38.1 27.4z"/>
    </g>
    <path d="M115.5 84.4c6.8 0 13 2 27.9 2 14 0 22.1-2 22.1-2 .1-.8.1-1.5.1-2.3H88.7c0 15.6 17.2 28.2 38.5 28.2 17.4 0 32-8.4 36.8-20-10.3 8.2-22.7 12-37.8 12-15.1 0-19.5-7.1-19.5-12 0-3.5 3.8-5.9 8.8-5.9z" style="fill:#1e4ca1"/>
    <linearGradient id="SVGID_6_" gradientUnits="userSpaceOnUse" x1="127.137" y1="67.229" x2="127.137" y2="82.455">
      <stop offset="0" style="stop-color:#244e9f"/>
      <stop offset="1" style="stop-color:#84a5d7"/>
    </linearGradient>
    <path d="M165.5 79.8s-8.1-2-22.1-2c-14.9 0-21.1 2-27.9 2-5 0-8.8-2.4-8.8-5.9 0-5 4.4-12 19.5-12s27.5 3.9 37.8 12c-4.8-11.6-19.5-20-36.8-20-21.2 0-38.5 12.6-38.5 28.2h76.9c0-.7 0-1.5-.1-2.3z" style="fill:url(#SVGID_6_)"/>
  </g>
  <g style="opacity:.48">
    <path class="st23" d="M165.5 73.3c-.1-.3-.3-.6-.4-1-1.2-2.7-3-5.2-5.2-7.6-2.4-2.5-5.4-4.8-8.8-6.6-7-3.8-15.2-5.9-23.9-5.9-10.6 0-20.6 3-28.2 8.6-2.5 1.9-4.7 3.9-6.5 6.2-.8 1.1-1.6 2.2-2.2 3.3C88.1 74.1 87 78 87 82.1v1.4c.2-3.2 1.1-6.3 2.6-9.2l.6-1.2c2.1-3.6 5-6.7 8.7-9.5 7.5-5.5 17.6-8.6 28.2-8.6 8.7 0 17 2 23.9 5.9 3.4 1.9 6.3 4.1 8.8 6.6 1.6 1.6 2.9 3.4 4 5.2.5.8.9 1.6 1.3 2.4.5-.4.7-1.1.4-1.8z"/>
    <path d="M165.1 75.2z" style="fill:#9dff43"/>
    <path d="M165.1 89.1c-.4.8-.8 1.6-1.2 2.3-1.1 1.8-2.4 3.5-3.9 5.2-2.4 2.5-5.2 4.8-8.5 6.6-6.8 3.8-14.8 5.9-23.3 5.9-10.3 0-20.1-3-27.5-8.6-3.6-2.7-6.5-5.9-8.5-9.5-2.1-3.7-3.2-7.7-3.2-11.8 0-1.7.2-3.4.5-5-1.5 3-2.4 6.1-2.6 9.2.2 3.6 1.3 7.1 3.2 10.4 2.1 3.6 5 6.7 8.7 9.5 7.5 5.5 17.6 8.6 28.2 8.6 8.7 0 17-2 23.9-5.9 3.4-1.9 6.3-4.1 8.8-6.6 2.2-2.3 4-4.9 5.3-7.6.1-.3.3-.6.4-.9.3-.6.2-1.3-.3-1.8z"/>
    <path class="st23" d="M165 89c-.6-.5-1.4-.5-2 0-.2.2-.4.3-.6.5-9.8 7.5-21.7 11.2-36.2 11.2-11.6 0-16.6-4.4-17.6-8.7-.1.3-.2.7-.2 1.1 0 4.8 4.7 10.4 17.8 10.4 14.8 0 26.8-3.8 36.8-11.7.3-.2.6-.3.9-.4.4-.8.8-1.5 1.2-2.3l-.1-.1z"/>
    <path d="M167.2 80.7c0 .3 0 .7-.1 1 0 0 0 .2-.1.4-.1.4-.1.9-.1.9l-1 .2c-.3.1-8.2 2.1-21.9 2.1-8.8 0-14.5-.7-19.1-1.3-3-.4-5.6-.7-8.2-.7-4 0-7 1.8-7 4.3v.1c1.3-1 3.3-1.5 5.6-1.5 2.7 0 5.3.3 8.4.7 4.7.6 10.6 1.3 19.6 1.3 8.8 0 15.3-.8 18.9-1.4 1.2-.2 2.1-.4 2.7-.5.5-.1.7-.2.8-.2l1-.2.2-1.2c0-.4.1-.7.1-1.1v-1.4c.3-.5.2-1 .2-1.5zM163.8 72.7c-.3 0-.5-.2-.7-.3-9.7-7.9-21.4-11.7-35.8-11.7-11 0-15.9 4.1-17.1 8.3 2.4-3 7.4-5.4 16-5.4 14.4 0 26.2 3.6 36 11.1.3.2.5.4.8.6.6.5 1.4.5 2 0l.1-.1c-.4-.9-.8-1.7-1.3-2.5z"/>
    <path class="st23" d="m167.1 79.7-.2-1.3-1-.2c-.1 0-.4-.1-.9-.2-.6-.1-1.5-.3-2.7-.5-3.7-.6-10.1-1.4-18.9-1.4-9 0-14.9.7-19.6 1.3-3.1.4-5.7.7-8.4.7h-.2c-3.4 0-6.1-1.3-6.8-3.2-.1.6-.2 1.1-.2 1.7 0 2.4 2.9 4.2 7 4.3h.2c2.7 0 5.3-.3 8.4-.7 4.7-.6 10.6-1.3 19.6-1.3 14 0 22.1 2 22.5 2.1l1 .2s.1.5.1.9c0-.2.1-.3.1-.4 0-.3.1-.7.1-1 0-.3 0-.7-.1-1z"/>
  </g>
</svg>
