<svg xmlns="http://www.w3.org/2000/svg" xml:space="preserve" overflow="visible" preserveAspectRatio="xMinYMin slice" viewBox="0 0 432 144">
  <polygon points="91.17,29.25 85.25,51.37 58.65,51.37 64.58,29.25 32.48,29.25 16.62,88.44 48.72,88.44 55.64,62.61 82.24,62.61 75.31,88.44 107.41,88.44 123.27,29.25"/>
  <polygon points="416.79,29.25 293.6,29.25 271.58,52.23 261.51,29.25 227.7,29.25 251.04,67.69 245.49,88.44 278.07,88.44 283.37,68.57 315.36,40.24 350.87,40.24 337.95,88.44 370.29,88.44 383.2,40.24 413.85,40.24"/>
  <path d="M214.52,31.69c-7.75-2.4-19.5-3.68-33.97-3.68c-16.53,0-30.81,1.64-39.2,4.5c-9.87,3.32-11.14,8.02-11.75,10.29 l-8.73,32.58c-0.71,2.66-0.18,4.87,1.64,6.78c4.8,5.05,18.58,7.51,42.13,7.51c17.11,0,29.51-1.36,37.92-4.17 c7.08-2.27,10.63-5.22,11.88-9.88l8.66-32.33C224.68,37.38,222.28,34.13,214.52,31.69z M190.63,43.79l-8.05,30.02 c-0.92,3.42-2.85,6.49-16.29,6.49c-6.81,0-11.02-0.8-12.52-2.37c-1.07-1.13-0.79-2.59-0.38-4.12l7.87-29.36 c1.16-4.43,3.11-7.31,17.21-7.31c6.35,0,10.32,0.79,11.8,2.34C191.45,40.71,191,42.42,190.63,43.79z"/>
  <path d="M384.5,88.44c-2.44,0-4.41-1.97-4.41-4.41c0-2.44,1.97-4.41,4.41-4.41s4.41,1.97,4.41,4.41 C388.91,86.46,386.94,88.44,384.5,88.44z M384.5,80.26c-2.05,0-3.7,1.69-3.7,3.77s1.66,3.76,3.7,3.76c2.05,0,3.72-1.69,3.72-3.76 S386.55,80.26,384.5,80.26z M385.57,86.44l-1.11-1.97h-0.73v1.97h-0.67V81.6h1.65c0.84,0,1.52,0.63,1.52,1.45 c0,0.71-0.44,1.15-1.04,1.33l1.16,2.06H385.57z M384.63,82.2h-0.9v1.69h0.9c0.54,0,0.91-0.35,0.91-0.84 C385.55,82.56,385.17,82.2,384.63,82.2z"/>
  <path d="M203.77,110.88h20.16l1.51-5.64h3.19l-3.88,14.47h-3.19l1.52-5.67h-20.16l-1.52,5.67h-3.19l3.88-14.47h3.19 L203.77,110.88z"/>
  <path d="M102.99,119.71h3.93l-4.3-14.47h-0.36h-3.57h-2.33h-3.7h-0.23l-12.05,14.47h3.93l2.91-3.49h14.73L102.99,119.71z M89.78,113.15l4.03-4.83h5.8l1.44,4.83H89.78z"/>
  <path d="M164.05,116.55c-0.3,0-0.51-0.12-0.65-0.37c-0.13-0.25-0.15-0.57-0.04-0.97l1.46-5.46c0.11-0.4,0.28-0.72,0.51-0.97 c0.24-0.25,0.55-0.37,0.95-0.37h22.25c0.13-0.48,0.16-0.91,0.1-1.31c-0.06-0.4-0.2-0.73-0.4-1c-0.21-0.27-0.47-0.48-0.8-0.63 c-0.33-0.15-0.68-0.22-1.06-0.22h-20.52c-0.4,0-0.79,0.07-1.19,0.21c-0.4,0.14-0.77,0.34-1.12,0.61c-0.35,0.27-0.66,0.6-0.94,1 c-0.28,0.4-0.48,0.85-0.61,1.34l-2.18,8.14c-0.14,0.52-0.18,0.97-0.11,1.36c0.06,0.39,0.2,0.72,0.41,0.98 c0.21,0.27,0.47,0.47,0.79,0.61c0.32,0.14,0.68,0.21,1.08,0.21h20.52c0.38,0,0.77-0.07,1.18-0.21c0.4-0.14,0.78-0.34,1.13-0.61 c0.35-0.27,0.66-0.6,0.93-0.98c0.27-0.39,0.48-0.84,0.62-1.36l0,0L164.05,116.55z"/>
  <polygon points="339.81,105.25 330.06,111.45 323.63,105.25 318.69,105.25 327.78,114.01 326.25,119.71 329.44,119.71 330.97,114.01 344.76,105.25"/>
  <path d="M241.89,116.18c-0.13-0.25-0.14-0.57-0.04-0.97l0.31-1.16h19.29l0.85-3.16h-19.29l0.3-1.13c0.11-0.4,0.28-0.72,0.51-0.97 c0.24-0.25,0.55-0.37,0.95-0.37h22.25c0.13-0.48,0.16-0.91,0.1-1.31c-0.06-0.4-0.2-0.73-0.4-1c-0.21-0.27-0.47-0.48-0.8-0.63 c-0.33-0.15-0.68-0.22-1.06-0.22h-0.58h-19.94c-0.4,0-0.79,0.07-1.19,0.21c-0.4,0.14-0.77,0.34-1.12,0.61 c-0.35,0.27-0.66,0.6-0.94,1c-0.28,0.4-0.48,0.85-0.61,1.34l-2.18,8.14c-0.14,0.52-0.18,0.97-0.11,1.36 c0.06,0.39,0.2,0.72,0.41,0.98c0.21,0.27,0.47,0.47,0.79,0.61c0.32,0.14,0.68,0.21,1.08,0.21H241l0,0h19.88l0,0h0.11 c0.38,0,0.77-0.07,1.18-0.21c0.4-0.14,0.78-0.34,1.13-0.61c0.35-0.27,0.66-0.6,0.93-0.98c0.27-0.39,0.48-0.84,0.62-1.36l0,0 l-22.31,0C242.24,116.55,242.03,116.43,241.89,116.18z"/>
  <path d="M149.36,107.1c-0.06-0.4-0.2-0.73-0.4-1c-0.21-0.27-0.47-0.48-0.8-0.63c-0.33-0.15-0.68-0.22-1.06-0.22h-23.53 l-3.88,14.47h3.19l1.52-5.67h15.87l2.71,5.67h3.25l-2.71-5.67h1.22c0.38,0,0.77-0.07,1.18-0.22c0.41-0.15,0.79-0.36,1.14-0.63 c0.35-0.27,0.66-0.6,0.94-1c0.28-0.4,0.48-0.83,0.61-1.31l0.53-1.96l0.14-0.51C149.39,107.93,149.43,107.49,149.36,107.1z M125.25,110.88l0.66-2.48h19c0.36,0,0.62,0.09,0.78,0.27c0.16,0.18,0.19,0.48,0.07,0.89l-0.04,0.15 c-0.11,0.42-0.3,0.72-0.55,0.89c-0.26,0.18-0.56,0.27-0.92,0.27H125.25z"/>
  <path d="M306.37,107.1c-0.06-0.4-0.2-0.73-0.4-1c-0.21-0.27-0.47-0.48-0.8-0.63c-0.33-0.15-0.68-0.22-1.06-0.22h-23.53 l-3.88,14.47h3.19l1.52-5.67h15.87l2.71,5.67h3.25l-2.71-5.67h1.22c0.38,0,0.77-0.07,1.18-0.22c0.41-0.15,0.79-0.36,1.14-0.63 c0.35-0.27,0.66-0.6,0.94-1c0.28-0.4,0.48-0.83,0.61-1.31l0.53-1.96l0.14-0.51C306.4,107.93,306.44,107.49,306.37,107.1z M282.26,110.88l0.66-2.48h19c0.36,0,0.62,0.09,0.78,0.27c0.16,0.18,0.19,0.48,0.07,0.89l-0.04,0.15 c-0.11,0.42-0.3,0.72-0.55,0.89c-0.26,0.18-0.56,0.27-0.92,0.27H282.26z"/>
</svg>
