<svg
	xmlns="http://www.w3.org/2000/svg"
	viewBox="669.72 330.59 516.42 374.58">
	<style>
		path { fill: #000000; }
		@media (prefers-color-scheme: dark) {
			path { fill: #ffffff; }
		}
	</style>
	<path d="M669.72 686.35v-51.2h7.59v20.63h7v-20.63h7.51v51.2h-7.51v-23.63h-7v23.63h-7.59zm25.53 0 6.86-51.2h9.48l6.86 51.2h-7.37l-1.09-9.58h-6.27l-1.09 9.58h-7.38zm9.27-16.53h4.67l-2.33-22.89-2.34 22.89zm17.36 16.53v-51.2h13.57c2.19 0 3.94.65 5.25 1.94s1.97 3.04 1.97 5.23v12.51c0 1.95-.32 3.47-.95 4.57-.63 1.1-1.8 1.84-3.5 2.23 2.04.58 3.38 1.41 4.01 2.49.63 1.07.95 2.63.95 4.68v11.34c0 2.19.49 4.27 1.46 6.22h-6.93a8.448 8.448 0 0 1-1.75-3.58c-.29-1.32-.44-3.15-.44-5.49v-8.92c0-2.68-1.31-4.02-3.94-4.02h-2.12v22.02h-7.58zm7.58-28.82h4.16c.53 0 .91-.11 1.13-.33.22-.22.33-.6.33-1.13v-12.51c0-.54-.11-.91-.33-1.13-.22-.22-.6-.33-1.13-.33h-4.16v15.43zm27.87 17.19 3.72-39.57h7.3l-6.27 51.2h-9.48l-6.27-51.2h7.29l3.71 39.57zm22.1 4.68h11.82v6.95h-19.41v-51.2h19.11v6.95h-11.53v13.6h8.32v6.95h-8.32v16.75zm33.37 4.86c-1.82 1.88-4.41 2.82-7.77 2.82-3.35 0-5.94-.94-7.77-2.82-1.82-1.88-2.73-4.3-2.73-7.28v-5.56h7.59v6c0 1.81.97 2.71 2.92 2.71s2.92-.9 2.92-2.71v-4.97c0-1.61-.78-3.29-2.33-5.05l-8.46-9.44c-1.75-1.95-2.63-4.44-2.63-7.46v-6c0-2.97.91-5.4 2.73-7.28 1.82-1.88 4.41-2.82 7.77-2.82 3.36 0 5.95.94 7.77 2.82 1.82 1.88 2.74 4.3 2.74 7.28v5.56h-7.59v-6c0-1.8-.97-2.71-2.92-2.71s-2.92.9-2.92 2.71v4.97c0 1.61.78 3.29 2.33 5.05l8.46 9.44c1.75 1.95 2.63 4.44 2.63 7.46v6c0 2.98-.91 5.4-2.74 7.28zm27.69-49.11v6.95h-7.44v44.25h-7.59V642.1h-7.44v-6.95h22.47zm144.95 51.2 6.86-51.2h9.48l6.86 51.2h-7.37l-1.09-9.58h-6.27l-1.09 9.58h-7.38zm9.26-16.53h4.67l-2.33-22.89-2.34 22.89zm17.36 16.53v-51.2h13.57c2.19 0 3.94.65 5.25 1.94s1.97 3.04 1.97 5.23v12.51c0 1.95-.32 3.47-.95 4.57-.63 1.1-1.8 1.84-3.5 2.23 2.04.58 3.38 1.41 4.01 2.49.63 1.07.95 2.63.95 4.68v11.34c0 2.19.49 4.27 1.46 6.22h-6.93a8.448 8.448 0 0 1-1.75-3.58c-.29-1.32-.44-3.15-.44-5.49v-8.92c0-2.68-1.31-4.02-3.94-4.02h-2.12v22.02h-7.58zm7.59-28.82h4.16c.53 0 .91-.11 1.13-.33.22-.22.33-.6.33-1.13v-12.51c0-.54-.11-.91-.33-1.13-.22-.22-.6-.33-1.13-.33h-4.16v15.43zm38.7 26.62c-1.73 1.95-4.54 2.93-8.43 2.93-3.89 0-6.7-.98-8.43-2.93-1.73-1.95-2.59-4.83-2.59-8.63v-29.55c0-3.8.86-6.68 2.59-8.63 1.73-1.95 4.53-2.93 8.43-2.93 3.89 0 6.7.98 8.43 2.93 1.73 1.95 2.59 4.83 2.59 8.63v3.44h-7.59v-5.34c0-1.8-1.14-2.71-3.43-2.71s-3.43.9-3.43 2.71v33.35c0 1.81 1.14 2.71 3.43 2.71s3.43-.9 3.43-2.71v-5.34h7.59v3.44c0 3.8-.87 6.68-2.59 8.63zm8.42 2.2v-51.2h7.59v20.63h7v-20.63h7.51v51.2h-7.51v-23.63h-7v23.63h-7.59zm35.89-6.95h11.82v6.95h-19.41v-51.2h19.11v6.95h-11.53v13.6h8.32v6.95h-8.32v16.75zm16.12 6.95v-51.2h13.57c2.19 0 3.94.65 5.25 1.94s1.97 3.04 1.97 5.23v12.51c0 1.95-.32 3.47-.95 4.57-.63 1.1-1.8 1.84-3.5 2.23 2.04.58 3.38 1.41 4.01 2.49.63 1.07.95 2.63.95 4.68v11.34c0 2.19.49 4.27 1.46 6.22h-6.93a8.448 8.448 0 0 1-1.75-3.58c-.29-1.32-.44-3.15-.44-5.49v-8.92c0-2.68-1.31-4.02-3.94-4.02h-2.12v22.02h-7.58zm7.59-28.82h4.16c.53 0 .91-.11 1.13-.33.22-.22.33-.6.33-1.13v-12.51c0-.54-.11-.91-.33-1.13-.22-.22-.6-.33-1.13-.33h-4.16v15.43zm35.02-22.38h7.59l-9.48 32.62v18.58h-7.59v-18.58l-9.48-32.62h7.59l5.69 22.6 5.68-22.6zM927.08 621.66c-.64.63-.66.99-.42 1.54.02.05.03.09.06.13h.64v-1.94l-.28.27zm.28-291.06v170.66l-.83-.16-6.53-1.19-3.01 5.94-25.87 51.11-33.62 66.37h-4.7v-117.1h-95.48v117.1h-74.56V330.6h74.56v109.97h95.48V330.6z"/>
	<path d="m1032.06 521.66-12.99 14.86.19.38 13.32-15.24h-.52zm-48.61 43.27-31.52 31.72-1.42 1.44-23.14 23.3-.28.28c-.64.63-.66.99-.42 1.54.02.05.03.09.06.13h3.67l47.16-25.24 7.35-3.94 3.88-10.65-5.34-18.58zM1099.04 403.43h-.02l6.97 17.61 1.78 4.5.02-.02-8.75-22.09zm65.15-37.81-48.36 51.36-9.27-20.27 34.73-31.09z"/>
	<path d="m1110.53 432.48-2.27-5.71-.48-1.24-1.78-4.5-6.97-17.61-3.96-9.99-4.35-10.97-2.67-6.77-17.89-45.1h-58.77L942.01 503.9l.7.13 9.21 1.66 7.88 1.43 3.3-4.5 1.94-2.67 2.39-3.26 6.32-8.65 2.64 2.79 4.72 4.97 2.2 2.35 47.38-44.9 2.66-8.86 3.16-10.55 3.67-12.26 1.17.39 1.7 5.66 1.77 5.88 1.77 5.86 2.6 8.65-.02.02-13.37 12.68-10.27 9.74-42.56 40.32-8.35-8.83-10.91 14.96h-.02l-5.89-1.07-5.88-1.07-13.31-2.4-11.26-2.04-2.41-.44-33.84 66.82-23.61 46.59-41.48 81.87 212.8-105.79-8.68-18.41-8.22-17.45-9.1-19.31-4.33-9.19 11.7-13.39 5.68-6.51 32.38-37 .02-.02 1.3 4.34 1.86 6.18 9.93 33h-38.78l-13.32 15.24 12.56 26.65 8.22 17.45h51.03l14.21 42.33h80.87l-75.61-190.81zM904.27 598.21l-4.5 6.15-4.61 6.32c-.59.82-1.41 1.16-2.17 1.16-1.83 0-3.58-1.88-2.55-4.01l4.69-9.74 28.72-59.64c.86-1.77 2.06-3.26 3.52-4.42 1.02-.85 2.17-1.51 3.39-1.98 1.47-.58 3.03-.88 4.64-.88.7 0 1.42.06 2.14.19l13.17 2.23.73.13-1.72 2.34-22.36 30.59-23 31.45-.09.11zm86.53 2.93-10.46 5.6-31.01 16.59-16.23 8.69c-1.72.93-3.44 1.33-5.07 1.33-5.55 0-10.05-4.73-10.41-10.02-.19-2.71.72-5.55 3.13-7.98l6.61-6.66 10.54-10.6 14.03-14.13 35.9-36.14 9.1 31.79.39 1.38.81 2.81c1.94 6.79-1.11 14.02-7.33 17.34z"/>
</svg>
